<svg width="657.9px" height="122px" xmlns="http://www.w3.org/2000/svg" viewBox="-78.94687499999998 14 657.89375 122" style="background: rgba(0, 0, 0, 0)" preserveAspectRatio="xMidYMid"><defs><linearGradient id="editing-gradient-gradient" x1="0" x2="1" y1="0.5" y2="0.5" gradientUnits="objectBoundingBox"><stop offset="0" stop-color="#51b3e6"></stop><stop offset="1" stop-color="#ff00ff"></stop></linearGradient></defs><g><g transform="matrix(1.4,0,0,1.9,-60.2,235.4)"><path d="M 3.7 -68.7 L -10.2 -68.7 L -2.1 -110.9 L 12 -110.9 L 3.7 -68.7 Z M 59.5 -67.4 L 59.5 -67.4 L 59.5 -67.4 Q 51.7 -67.4 51.7 -73.4 L 51.7 -73.4 L 51.7 -73.4 Q 51.7 -76.1 52.9 -81.2 L 52.9 -81.2 L 52.9 -81.2 Q 54 -86.2 54.4 -88.3 L 54.4 -88.3 L 54.4 -88.3 Q 55.3 -93 55.3 -94.4 L 55.3 -94.4 L 55.3 -94.4 Q 55.3 -97.7 52.8 -97.7 L 52.8 -97.7 L 52.8 -97.7 Q 51.2 -97.7 49.7 -95.5 L 49.7 -95.5 L 49.7 -95.5 Q 48.2 -93.3 47.5 -88.9 L 47.5 -88.9 L 43.5 -68.7 L 31 -67.4 L 34.5 -84.8 L 34.5 -84.8 Q 35 -87.7 35.5 -91 L 35.5 -91 L 35.5 -91 Q 36.1 -94.2 36.1 -94.8 L 36.1 -94.8 L 36.1 -94.8 Q 36.1 -97.7 33.9 -97.7 L 33.9 -97.7 L 33.9 -97.7 Q 32.4 -97.7 30.8 -95.5 L 30.8 -95.5 L 30.8 -95.5 Q 29.2 -93.3 28.3 -88.9 L 28.3 -88.9 L 24.4 -68.7 L 11.8 -67.4 L 18.5 -101.3 L 29 -102.6 L 27.9 -96.2 L 27.9 -96.2 Q 29.5 -99.6 32.6 -101.1 L 32.6 -101.1 L 32.6 -101.1 Q 35.7 -102.6 40.5 -102.6 L 40.5 -102.6 L 40.5 -102.6 Q 43.2 -102.6 45 -101.3 L 45 -101.3 L 45 -101.3 Q 46.8 -99.9 47.4 -97.8 L 47.4 -97.8 L 47.4 -97.8 Q 48.5 -100 51.3 -101.3 L 51.3 -101.3 L 51.3 -101.3 Q 54 -102.6 57.5 -102.6 L 57.5 -102.6 L 57.5 -102.6 Q 60.9 -102.6 62.6 -101.9 L 62.6 -101.9 L 62.6 -101.9 Q 64.3 -101.2 65.3 -99.9 L 65.3 -99.9 L 65.3 -99.9 Q 67 -97.7 67 -93.6 L 67 -93.6 L 67 -93.6 Q 67 -89.6 65.3 -81.2 L 65.3 -81.2 L 65.3 -81.2 Q 64.4 -77.1 64.4 -75.6 L 64.4 -75.6 L 64.4 -75.6 Q 64.4 -74.1 65.3 -73.2 L 65.3 -73.2 L 65.3 -73.2 Q 66.1 -72.3 67.4 -72.2 L 67.4 -72.2 L 67.4 -72.2 Q 66.8 -70 64.6 -68.7 L 64.6 -68.7 L 64.6 -68.7 Q 62.4 -67.4 59.5 -67.4 Z M 75.1 -70.6 L 75.1 -70.6 L 75.1 -70.6 Q 73.6 -72.3 73 -74.9 L 73 -74.9 L 73 -74.9 Q 72.3 -77.5 72.3 -81.8 L 72.3 -81.8 L 72.3 -81.8 Q 72.3 -86.1 73.8 -90 L 73.8 -90 L 73.8 -90 Q 75.2 -93.9 77.9 -96.7 L 77.9 -96.7 L 77.9 -96.7 Q 83.4 -102.6 92.5 -102.6 L 92.5 -102.6 L 92.5 -102.6 Q 95.8 -102.6 98.1 -101.5 L 98.1 -101.5 L 109.1 -102.6 L 104.3 -77.7 L 104.3 -77.7 Q 104.2 -76.9 104.2 -75.5 L 104.2 -75.5 L 104.2 -75.5 Q 104.2 -74.1 105 -73.2 L 105 -73.2 L 105 -73.2 Q 105.9 -72.3 107.2 -72.2 L 107.2 -72.2 L 107.2 -72.2 Q 106.5 -70 104.2 -68.7 L 104.2 -68.7 L 104.2 -68.7 Q 101.9 -67.4 99.2 -67.4 L 99.2 -67.4 L 99.2 -67.4 Q 96.6 -67.4 94.8 -68.4 L 94.8 -68.4 L 94.8 -68.4 Q 93.1 -69.4 92.6 -71.1 L 92.6 -71.1 L 92.6 -71.1 Q 91.5 -69.5 89.4 -68.4 L 89.4 -68.4 L 89.4 -68.4 Q 87.2 -67.4 84.3 -67.4 L 84.3 -67.4 L 84.3 -67.4 Q 81.4 -67.4 79 -68.2 L 79 -68.2 L 79 -68.2 Q 76.6 -69 75.1 -70.6 Z M 88.6 -96.6 L 88.6 -96.6 L 88.6 -96.6 Q 87.9 -95.5 87.3 -93.5 L 87.3 -93.5 L 87.3 -93.5 Q 86.6 -91.6 85.6 -86.3 L 85.6 -86.3 L 85.6 -86.3 Q 84.5 -81.1 84.5 -77.4 L 84.5 -77.4 L 84.5 -77.4 Q 84.5 -73.7 85.1 -72.6 L 85.1 -72.6 L 85.1 -72.6 Q 85.7 -71.5 86.7 -71.5 L 86.7 -71.5 L 86.7 -71.5 Q 88.7 -71.5 90.2 -73.5 L 90.2 -73.5 L 90.2 -73.5 Q 91.7 -75.4 92.3 -78.9 L 92.3 -78.9 L 95.7 -97.6 L 95.7 -97.6 Q 94.4 -98.8 92.8 -98.8 L 92.8 -98.8 L 92.8 -98.8 Q 91.2 -98.8 90.3 -98.3 L 90.3 -98.3 L 90.3 -98.3 Q 89.4 -97.8 88.6 -96.6 Z M 116.8 -95.5 L 116.8 -95.5 L 116.8 -95.5 Q 119 -98.5 122.3 -100.6 L 122.3 -100.6 L 122.3 -100.6 Q 125.6 -102.6 129.6 -102.6 L 129.6 -102.6 L 129.6 -102.6 Q 133.7 -102.6 135.6 -101.3 L 135.6 -101.3 L 148.1 -102.6 L 143.8 -78 L 143.8 -78 Q 141.5 -65.5 136.8 -60.6 L 136.8 -60.6 L 136.8 -60.6 Q 132.3 -55.9 123.4 -55.9 L 123.4 -55.9 L 123.4 -55.9 Q 116.7 -55.9 112.9 -58 L 112.9 -58 L 112.9 -58 Q 109 -60.1 109 -63.6 L 109 -63.6 L 109 -63.6 Q 109 -66.3 111 -67.8 L 111 -67.8 L 111 -67.8 Q 113 -69.3 116.1 -69.3 L 116.1 -69.3 L 116.1 -69.3 Q 118.7 -69.3 120.8 -68.1 L 120.8 -68.1 L 120.8 -68.1 Q 122 -67.4 122.6 -66.5 L 122.6 -66.5 L 122.6 -66.5 Q 121.1 -65.2 121.1 -63.1 L 121.1 -63.1 L 121.1 -63.1 Q 121.1 -60.4 123.7 -60.4 L 123.7 -60.4 L 123.7 -60.4 Q 128 -60.4 130.4 -70.5 L 130.4 -70.5 L 130.4 -70.5 Q 131.1 -73.2 131.7 -76 L 131.7 -76 L 131.7 -76 Q 128.8 -72.5 122.3 -72.5 L 122.3 -72.5 L 122.3 -72.5 Q 117.7 -72.5 115.1 -74.7 L 115.1 -74.7 L 115.1 -74.7 Q 112.5 -76.8 112.5 -82 L 112.5 -82 L 112.5 -82 Q 112.5 -85.2 113.6 -88.8 L 113.6 -88.8 L 113.6 -88.8 Q 114.7 -92.4 116.8 -95.5 Z M 125.1 -81.8 L 125.1 -81.8 L 125.1 -81.8 Q 125.1 -77.4 127.4 -77.4 L 127.4 -77.4 L 127.4 -77.4 Q 128.9 -77.4 130.4 -79.1 L 130.4 -79.1 L 130.4 -79.1 Q 131.5 -80.4 132 -82.4 L 132 -82.4 L 135.3 -98.8 L 135.3 -98.8 Q 134.9 -98.9 134.6 -99 L 134.6 -99 L 134.6 -99 Q 134 -99.3 133.1 -99.3 L 133.1 -99.3 L 133.1 -99.3 Q 129.2 -99.3 126.9 -92.9 L 126.9 -92.9 L 126.9 -92.9 Q 125.1 -87.9 125.1 -81.8 Z M 176.5 -79.5 L 176.5 -79.5 L 176.5 -79.5 Q 178.1 -78.4 178.1 -76 L 178.1 -76 L 178.1 -76 Q 178.1 -73.6 176.9 -72.1 L 176.9 -72.1 L 176.9 -72.1 Q 175.7 -70.6 173.7 -69.5 L 173.7 -69.5 L 173.7 -69.5 Q 169.6 -67.4 165.2 -67.4 L 165.2 -67.4 L 165.2 -67.4 Q 160.8 -67.4 158.2 -68.4 L 158.2 -68.4 L 158.2 -68.4 Q 155.6 -69.3 153.9 -71.1 L 153.9 -71.1 L 153.9 -71.1 Q 150.5 -74.5 150.5 -80.7 L 150.5 -80.7 L 150.5 -80.7 Q 150.5 -90.4 155.7 -96.3 L 155.7 -96.3 L 155.7 -96.3 Q 161.4 -102.6 171.2 -102.6 L 171.2 -102.6 L 171.2 -102.6 Q 177.2 -102.6 180.3 -100.1 L 180.3 -100.1 L 180.3 -100.1 Q 182.5 -98.1 182.5 -95 L 182.5 -95 L 182.5 -95 Q 182.5 -83.7 163 -83.7 L 163 -83.7 L 163 -83.7 Q 162.8 -82.1 162.8 -80.7 L 162.8 -80.7 L 162.8 -80.7 Q 162.8 -77.7 164.1 -76.6 L 164.1 -76.6 L 164.1 -76.6 Q 165.4 -75.5 167.8 -75.5 L 167.8 -75.5 L 167.8 -75.5 Q 170.3 -75.5 172.9 -76.6 L 172.9 -76.6 L 172.9 -76.6 Q 175.5 -77.7 176.5 -79.5 Z M 163.5 -86.5 L 163.5 -86.5 L 163.5 -86.5 Q 168 -86.5 170.7 -89.3 L 170.7 -89.3 L 170.7 -89.3 Q 173.3 -92 173.3 -96.3 L 173.3 -96.3 L 173.3 -96.3 Q 173.3 -97.8 172.7 -98.6 L 172.7 -98.6 L 172.7 -98.6 Q 172.2 -99.4 171.1 -99.4 L 171.1 -99.4 L 171.1 -99.4 Q 170 -99.4 169.1 -98.9 L 169.1 -98.9 L 169.1 -98.9 Q 168.2 -98.5 167.2 -97.1 L 167.2 -97.1 L 167.2 -97.1 Q 164.8 -93.9 163.5 -86.5 Z M 203.8 -91.2 L 203.8 -91.2 L 203.8 -91.2 Q 204.7 -93.5 204.7 -95.6 L 204.7 -95.6 L 204.7 -95.6 Q 204.7 -99.4 201.6 -99.4 L 201.6 -99.4 L 201.6 -99.4 Q 200 -99.4 198.7 -97.9 L 198.7 -97.9 L 198.7 -97.9 Q 197.4 -96.5 197.4 -94.7 L 197.4 -94.7 L 197.4 -94.7 Q 197.4 -93.4 198.4 -92.4 L 198.4 -92.4 L 198.4 -92.4 Q 199.9 -91 203.7 -88.7 L 203.7 -88.7 L 203.7 -88.7 Q 207.5 -86.4 208.9 -84.5 L 208.9 -84.5 L 208.9 -84.5 Q 210.3 -82.6 210.3 -80 L 210.3 -80 L 210.3 -80 Q 210.3 -77.4 209.1 -75 L 209.1 -75 L 209.1 -75 Q 207.8 -72.7 205.6 -71 L 205.6 -71 L 205.6 -71 Q 200.8 -67.4 193.1 -67.4 L 193.1 -67.4 L 193.1 -67.4 Q 189 -67.4 185.8 -69.6 L 185.8 -69.6 L 185.8 -69.6 Q 182.6 -71.7 182.6 -74.2 L 182.6 -74.2 L 182.6 -74.2 Q 182.6 -76.7 184.4 -78.2 L 184.4 -78.2 L 184.4 -78.2 Q 186.2 -79.6 188.9 -79.6 L 188.9 -79.6 L 188.9 -79.6 Q 191.6 -79.6 193.2 -78.6 L 193.2 -78.6 L 193.2 -78.6 Q 192.4 -76.5 192.4 -75.1 L 192.4 -75.1 L 192.4 -75.1 Q 192.4 -70.9 196 -70.9 L 196 -70.9 L 196 -70.9 Q 197.5 -70.9 198.6 -71.8 L 198.6 -71.8 L 198.6 -71.8 Q 199.6 -72.8 199.6 -74.5 L 199.6 -74.5 L 199.6 -74.5 Q 199.6 -77.7 194.1 -81.2 L 194.1 -81.2 L 194.1 -81.2 Q 189.6 -84.1 188.6 -85.3 L 188.6 -85.3 L 188.6 -85.3 Q 186.8 -87.3 186.8 -89.9 L 186.8 -89.9 L 186.8 -89.9 Q 186.8 -92.4 188.1 -94.9 L 188.1 -94.9 L 188.1 -94.9 Q 189.3 -97.3 191.5 -99 L 191.5 -99 L 191.5 -99 Q 196.2 -102.6 204.3 -102.6 L 204.3 -102.6 L 204.3 -102.6 Q 208.5 -102.6 210.9 -101 L 210.9 -101 L 210.9 -101 Q 213.4 -99.3 213.4 -96.5 L 213.4 -96.5 L 213.4 -96.5 Q 213.4 -93.7 211.7 -92.1 L 211.7 -92.1 L 211.7 -92.1 Q 210 -90.5 206.9 -90.5 L 206.9 -90.5 L 206.9 -90.5 Q 204.8 -90.5 203.8 -91.2 Z M 254.9 -89.3 L 267.8 -90.5 L 267.8 -90.5 Q 263.2 -80.4 263.2 -68.6 L 263.2 -68.6 L 263.2 -68.6 Q 261.5 -67.4 258.9 -67.4 L 258.9 -67.4 L 258.9 -67.4 Q 256.4 -67.4 254.8 -68.6 L 254.8 -68.6 L 254.8 -68.6 Q 253.2 -69.8 252.9 -71 L 252.9 -71 L 252.9 -71 Q 251.3 -69.3 248.7 -68.4 L 248.7 -68.4 L 248.7 -68.4 Q 246.1 -67.4 243.4 -67.4 L 243.4 -67.4 L 243.4 -67.4 Q 240.6 -67.4 238.2 -68.3 L 238.2 -68.3 L 238.2 -68.3 Q 235.8 -69.2 233.9 -71.2 L 233.9 -71.2 L 233.9 -71.2 Q 229.9 -75.6 229.9 -83.8 L 229.9 -83.8 L 229.9 -83.8 Q 229.9 -96.6 236.7 -104.3 L 236.7 -104.3 L 236.7 -104.3 Q 243.7 -112.2 256.2 -112.2 L 256.2 -112.2 L 256.2 -112.2 Q 264.9 -112.2 267.9 -107.7 L 267.9 -107.7 L 267.9 -107.7 Q 268.9 -106.3 268.9 -104.6 L 268.9 -104.6 L 268.9 -104.6 Q 268.9 -102.9 268.2 -101.5 L 268.2 -101.5 L 268.2 -101.5 Q 267.4 -100.1 266.3 -98.9 L 266.3 -98.9 L 266.3 -98.9 Q 263.5 -96.4 260.1 -96.4 L 260.1 -96.4 L 260.1 -96.4 Q 258.8 -96.4 257.5 -96.8 L 257.5 -96.8 L 257.5 -96.8 Q 257.8 -98.7 257.8 -101 L 257.8 -101 L 257.8 -101 Q 257.8 -103.2 257.6 -104.2 L 257.6 -104.2 L 257.6 -104.2 Q 257.4 -105.2 257.1 -106.1 L 257.1 -106.1 L 257.1 -106.1 Q 256.2 -107.8 254.4 -107.8 L 254.4 -107.8 L 254.4 -107.8 Q 252.6 -107.8 250.6 -105.9 L 250.6 -105.9 L 250.6 -105.9 Q 248.5 -103.9 246.9 -100.7 L 246.9 -100.7 L 246.9 -100.7 Q 243.4 -93.5 243.4 -84.9 L 243.4 -84.9 L 243.4 -84.9 Q 243.4 -80.9 245 -78.1 L 245 -78.1 L 245 -78.1 Q 246.6 -75 249.6 -75 L 249.6 -75 L 249.6 -75 Q 250.6 -75 251.5 -75.6 L 251.5 -75.6 L 251.5 -75.6 Q 252.4 -76.1 252.8 -76.4 L 252.8 -76.4 L 254.9 -89.3 Z M 273.7 -70.6 L 273.7 -70.6 L 273.7 -70.6 Q 272.2 -72.3 271.5 -74.9 L 271.5 -74.9 L 271.5 -74.9 Q 270.9 -77.5 270.9 -81.8 L 270.9 -81.8 L 270.9 -81.8 Q 270.9 -86.1 272.3 -90 L 272.3 -90 L 272.3 -90 Q 273.8 -93.9 276.5 -96.7 L 276.5 -96.7 L 276.5 -96.7 Q 282 -102.6 291.1 -102.6 L 291.1 -102.6 L 291.1 -102.6 Q 294.4 -102.6 296.7 -101.5 L 296.7 -101.5 L 307.7 -102.6 L 302.9 -77.7 L 302.9 -77.7 Q 302.7 -76.9 302.7 -75.5 L 302.7 -75.5 L 302.7 -75.5 Q 302.7 -74.1 303.6 -73.2 L 303.6 -73.2 L 303.6 -73.2 Q 304.5 -72.3 305.8 -72.2 L 305.8 -72.2 L 305.8 -72.2 Q 305.1 -70 302.8 -68.7 L 302.8 -68.7 L 302.8 -68.7 Q 300.4 -67.4 297.8 -67.4 L 297.8 -67.4 L 297.8 -67.4 Q 295.2 -67.4 293.4 -68.4 L 293.4 -68.4 L 293.4 -68.4 Q 291.7 -69.4 291.2 -71.1 L 291.2 -71.1 L 291.2 -71.1 Q 290.1 -69.5 288 -68.4 L 288 -68.4 L 288 -68.4 Q 285.8 -67.4 282.9 -67.4 L 282.9 -67.4 L 282.9 -67.4 Q 280 -67.4 277.6 -68.2 L 277.6 -68.2 L 277.6 -68.2 Q 275.2 -69 273.7 -70.6 Z M 287.2 -96.6 L 287.2 -96.6 L 287.2 -96.6 Q 286.5 -95.5 285.9 -93.5 L 285.9 -93.5 L 285.9 -93.5 Q 285.2 -91.6 284.2 -86.3 L 284.2 -86.3 L 284.2 -86.3 Q 283.1 -81.1 283.1 -77.4 L 283.1 -77.4 L 283.1 -77.4 Q 283.1 -73.7 283.7 -72.6 L 283.7 -72.6 L 283.7 -72.6 Q 284.3 -71.5 285.3 -71.5 L 285.3 -71.5 L 285.3 -71.5 Q 287.3 -71.5 288.8 -73.5 L 288.8 -73.5 L 288.8 -73.5 Q 290.3 -75.4 290.9 -78.9 L 290.9 -78.9 L 294.3 -97.6 L 294.3 -97.6 Q 293 -98.8 291.4 -98.8 L 291.4 -98.8 L 291.4 -98.8 Q 289.8 -98.8 288.9 -98.3 L 288.9 -98.3 L 288.9 -98.3 Q 288 -97.8 287.2 -96.6 Z M 326.4 -72.2 L 326.4 -72.2 L 326.4 -72.2 Q 324.4 -67.4 318.1 -67.4 L 318.1 -67.4 L 318.1 -67.4 Q 314.9 -67.4 312.9 -69.7 L 312.9 -69.7 L 312.9 -69.7 Q 311.2 -71.5 311.2 -73.6 L 311.2 -73.6 L 311.2 -73.6 Q 311.2 -78.4 313.4 -88.9 L 313.4 -88.9 L 318.1 -113.5 L 331.1 -114.8 L 324.9 -82.4 L 324.9 -82.4 Q 323.8 -77.7 323.8 -76 L 323.8 -76 L 323.8 -76 Q 323.8 -72.4 326.4 -72.2 Z M 347.2 -72.2 L 347.2 -72.2 L 347.2 -72.2 Q 345.2 -67.4 338.8 -67.4 L 338.8 -67.4 L 338.8 -67.4 Q 335.6 -67.4 333.6 -69.7 L 333.6 -69.7 L 333.6 -69.7 Q 331.9 -71.5 331.9 -73.6 L 331.9 -73.6 L 331.9 -73.6 Q 331.9 -78.4 334.2 -88.9 L 334.2 -88.9 L 338.8 -113.5 L 351.8 -114.8 L 345.6 -82.4 L 345.6 -82.4 Q 344.5 -77.7 344.5 -76 L 344.5 -76 L 344.5 -76 Q 344.5 -72.4 347.2 -72.2 Z M 378.5 -79.5 L 378.5 -79.5 L 378.5 -79.5 Q 380.1 -78.4 380.1 -76 L 380.1 -76 L 380.1 -76 Q 380.1 -73.6 378.9 -72.1 L 378.9 -72.1 L 378.9 -72.1 Q 377.7 -70.6 375.7 -69.5 L 375.7 -69.5 L 375.7 -69.5 Q 371.6 -67.4 367.2 -67.4 L 367.2 -67.4 L 367.2 -67.4 Q 362.8 -67.4 360.2 -68.4 L 360.2 -68.4 L 360.2 -68.4 Q 357.6 -69.3 355.9 -71.1 L 355.9 -71.1 L 355.9 -71.1 Q 352.5 -74.5 352.5 -80.7 L 352.5 -80.7 L 352.5 -80.7 Q 352.5 -90.4 357.7 -96.3 L 357.7 -96.3 L 357.7 -96.3 Q 363.4 -102.6 373.1 -102.6 L 373.1 -102.6 L 373.1 -102.6 Q 379.2 -102.6 382.2 -100.1 L 382.2 -100.1 L 382.2 -100.1 Q 384.5 -98.1 384.5 -95 L 384.5 -95 L 384.5 -95 Q 384.5 -83.7 365 -83.7 L 365 -83.7 L 365 -83.7 Q 364.8 -82.1 364.8 -80.7 L 364.8 -80.7 L 364.8 -80.7 Q 364.8 -77.7 366.1 -76.6 L 366.1 -76.6 L 366.1 -76.6 Q 367.4 -75.5 369.8 -75.5 L 369.8 -75.5 L 369.8 -75.5 Q 372.3 -75.5 374.8 -76.6 L 374.8 -76.6 L 374.8 -76.6 Q 377.4 -77.7 378.5 -79.5 Z M 365.5 -86.5 L 365.5 -86.5 L 365.5 -86.5 Q 370 -86.5 372.6 -89.3 L 372.6 -89.3 L 372.6 -89.3 Q 375.3 -92 375.3 -96.3 L 375.3 -96.3 L 375.3 -96.3 Q 375.3 -97.8 374.7 -98.6 L 374.7 -98.6 L 374.7 -98.6 Q 374.2 -99.4 373.1 -99.4 L 373.1 -99.4 L 373.1 -99.4 Q 372 -99.4 371.1 -98.9 L 371.1 -98.9 L 371.1 -98.9 Q 370.1 -98.5 369.2 -97.1 L 369.2 -97.1 L 369.2 -97.1 Q 366.8 -93.9 365.5 -86.5 Z M 406.7 -86.7 L 406.7 -86.7 L 406.7 -86.7 Q 409 -90.8 409 -94.9 L 409 -94.9 L 409 -94.9 Q 409 -97.7 407 -97.7 L 407 -97.7 L 407 -97.7 Q 405.5 -97.7 403.9 -95.1 L 403.9 -95.1 L 403.9 -95.1 Q 402.2 -92.4 401.7 -89.1 L 401.7 -89.1 L 398.4 -68.7 L 385.1 -67.4 L 391.6 -101.3 L 402.2 -102.6 L 401.1 -96.2 L 401.1 -96.2 Q 404.2 -102.6 411.2 -102.6 L 411.2 -102.6 L 411.2 -102.6 Q 414.9 -102.6 417 -100.7 L 417 -100.7 L 417 -100.7 Q 419 -98.8 419 -94.8 L 419 -94.8 L 419 -94.8 Q 419 -90.9 416.4 -88.4 L 416.4 -88.4 L 416.4 -88.4 Q 413.8 -85.9 409.4 -85.9 L 409.4 -85.9 L 409.4 -85.9 Q 407.5 -85.9 406.7 -86.7 Z M 440.3 -75.9 L 440.3 -75.9 L 440.3 -75.9 Q 437 -72.5 430.9 -72.5 L 430.9 -72.5 L 430.9 -72.5 Q 423.3 -72.5 421.7 -78 L 421.7 -78 L 421.7 -78 Q 421.2 -79.7 421.2 -81.6 L 421.2 -81.6 L 421.2 -81.6 Q 421.2 -83.4 421.6 -85.3 L 421.6 -85.3 L 424.6 -101.3 L 437.6 -102.6 L 434.1 -84 L 434.1 -84 Q 433.9 -83.2 433.8 -82.3 L 433.8 -82.3 L 433.8 -82.3 Q 433.6 -81.4 433.6 -80.4 L 433.6 -80.4 L 433.6 -80.4 Q 433.6 -79.5 433.9 -78.9 L 433.9 -78.9 L 433.9 -78.9 Q 434.2 -78.3 434.7 -77.9 L 434.7 -77.9 L 434.7 -77.9 Q 435.4 -77.4 436.8 -77.4 L 436.8 -77.4 L 436.8 -77.4 Q 438.2 -77.4 439.4 -79.1 L 439.4 -79.1 L 439.4 -79.1 Q 440.5 -80.7 441.1 -83.6 L 441.1 -83.6 L 444.6 -101.3 L 457.2 -102.6 L 452.4 -77.5 L 452.4 -77.5 Q 450.1 -65.2 445.2 -60.3 L 445.2 -60.3 L 445.2 -60.3 Q 442.7 -57.8 439.5 -56.8 L 439.5 -56.8 L 439.5 -56.8 Q 436.3 -55.8 432.1 -55.8 L 432.1 -55.8 L 432.1 -55.8 Q 425.4 -55.8 421.5 -58 L 421.5 -58 L 421.5 -58 Q 417.7 -60.1 417.7 -63.6 L 417.7 -63.6 L 417.7 -63.6 Q 417.7 -66.2 419.7 -67.7 L 419.7 -67.7 L 419.7 -67.7 Q 421.7 -69.2 424.7 -69.2 L 424.7 -69.2 L 424.7 -69.2 Q 427.4 -69.2 429.5 -68.1 L 429.5 -68.1 L 429.5 -68.1 Q 430.7 -67.4 431.3 -66.5 L 431.3 -66.5 L 431.3 -66.5 Q 429.8 -65.2 429.8 -63.1 L 429.8 -63.1 L 429.8 -63.1 Q 429.8 -60.3 432.3 -60.3 L 432.3 -60.3 L 432.3 -60.3 Q 436.6 -60.3 439 -70 L 439 -70 L 439 -70 Q 439.7 -72.9 440.3 -75.9 Z" fill="url(#editing-gradient-gradient)"></path></g></g><style>text {
  font-size: 64px;
  font-family: Arial Black;
  dominant-baseline: central;
  text-anchor: middle;
}</style></svg>